<svg xmlns="http://www.w3.org/2000/svg" viewBox="0 0 980 600" width="980" height="600" role="img" aria-label="The four Spaces leaks Powerspaces fixes">
  <defs>
    <filter id="sh" x="-30%" y="-30%" width="160%" height="160%">
      <feDropShadow dx="0" dy="3" stdDeviation="6" flood-color="#000000" flood-opacity="0.45"/>
    </filter>
  </defs>
  <rect width="980" height="600" rx="16" fill="#0a1120"/>
  <rect x="0.5" y="0.5" width="979" height="599" rx="15.5" fill="none" stroke="#1e2b4a"/>
  <text x="40" y="44" font-family="'Instrument Sans','Instrument Sans Variable',-apple-system,'SF Pro Text','Helvetica Neue',Arial,sans-serif" font-size="26" font-weight="700" fill="#e8edf6">The four leaks Powerspaces fixes</text>
  <text x="40" y="72" font-family="'Instrument Sans','Instrument Sans Variable',-apple-system,'SF Pro Text','Helvetica Neue',Arial,sans-serif" font-size="15" font-weight="500" fill="#a9b6cf">Native Spaces almost get virtual desktops right. Powerspaces plugs the gaps.</text>

  <!-- column headers -->
  <text x="240" y="108" text-anchor="middle" font-family="'JetBrains Mono','JetBrains Mono Variable',ui-monospace,SFMono-Regular,Menlo,monospace" font-size="12" font-weight="500" fill="#e58fa0" letter-spacing="1.6">WITHOUT POWERSPACES</text>
  <text x="740" y="108" text-anchor="middle" font-family="'JetBrains Mono','JetBrains Mono Variable',ui-monospace,SFMono-Regular,Menlo,monospace" font-size="12" font-weight="500" fill="#6f9dff" letter-spacing="1.6">WITH POWERSPACES</text>

  <!-- ROW TEMPLATE repeated 4x -->
  <!-- Row 1 -->
  <g transform="translate(0,124)">
    <g filter="url(#sh)"><rect x="40" y="0" width="400" height="96" rx="14" fill="#0e1730" stroke="#3a2436"/></g>
    <circle cx="78" cy="48" r="18" fill="#221a2c"/>
    <path d="M71 41 l14 14 M85 41 l-14 14" stroke="#e58fa0" stroke-width="3" stroke-linecap="round"/>
    <text x="112" y="42" font-family="'Instrument Sans','Instrument Sans Variable',-apple-system,'SF Pro Text','Helvetica Neue',Arial,sans-serif" font-size="17" font-weight="700" fill="#e8edf6">Dock yank</text>
    <text x="112" y="66" font-family="'Instrument Sans','Instrument Sans Variable',-apple-system,'SF Pro Text','Helvetica Neue',Arial,sans-serif" font-size="13.5" fill="#a9b6cf">Clicking a Dock icon teleports you to its desktop.</text>
    <path d="M458 48 h64 m-14 -10 l14 10 -14 10" stroke="#2a3a5e" stroke-width="3" fill="none" stroke-linecap="round" stroke-linejoin="round"/>
    <g filter="url(#sh)"><rect x="540" y="0" width="400" height="96" rx="14" fill="#0e1730" stroke="#1e3a5e"/></g>
    <circle cx="578" cy="48" r="18" fill="#13223f"/>
    <path d="M571 48 l5 5 9 -11" stroke="#6f9dff" stroke-width="3" fill="none" stroke-linecap="round" stroke-linejoin="round"/>
    <text x="612" y="42" font-family="'Instrument Sans','Instrument Sans Variable',-apple-system,'SF Pro Text','Helvetica Neue',Arial,sans-serif" font-size="17" font-weight="700" fill="#e8edf6">Smart-launch</text>
    <text x="612" y="66" font-family="'Instrument Sans','Instrument Sans Variable',-apple-system,'SF Pro Text','Helvetica Neue',Arial,sans-serif" font-size="13.5" fill="#a9b6cf">Focuses or opens the app right here — never jumps.</text>
  </g>

  <!-- Row 2 -->
  <g transform="translate(0,236)">
    <g filter="url(#sh)"><rect x="40" y="0" width="400" height="96" rx="14" fill="#0e1730" stroke="#3a2436"/></g>
    <circle cx="78" cy="48" r="18" fill="#221a2c"/>
    <path d="M71 41 l14 14 M85 41 l-14 14" stroke="#e58fa0" stroke-width="3" stroke-linecap="round"/>
    <text x="112" y="42" font-family="'Instrument Sans','Instrument Sans Variable',-apple-system,'SF Pro Text','Helvetica Neue',Arial,sans-serif" font-size="17" font-weight="700" fill="#e8edf6">Launcher yank</text>
    <text x="112" y="66" font-family="'Instrument Sans','Instrument Sans Variable',-apple-system,'SF Pro Text','Helvetica Neue',Arial,sans-serif" font-size="13.5" fill="#a9b6cf">Spotlight jumps you to its other-desktop copy.</text>
    <path d="M458 48 h64 m-14 -10 l14 10 -14 10" stroke="#2a3a5e" stroke-width="3" fill="none" stroke-linecap="round" stroke-linejoin="round"/>
    <g filter="url(#sh)"><rect x="540" y="0" width="400" height="96" rx="14" fill="#0e1730" stroke="#1e3a5e"/></g>
    <circle cx="578" cy="48" r="18" fill="#13223f"/>
    <path d="M571 48 l5 5 9 -11" stroke="#6f9dff" stroke-width="3" fill="none" stroke-linecap="round" stroke-linejoin="round"/>
    <text x="612" y="42" font-family="'Instrument Sans','Instrument Sans Variable',-apple-system,'SF Pro Text','Helvetica Neue',Arial,sans-serif" font-size="17" font-weight="700" fill="#e8edf6">App Launcher / Raycast</text>
    <text x="612" y="66" font-family="'Instrument Sans','Instrument Sans Variable',-apple-system,'SF Pro Text','Helvetica Neue',Arial,sans-serif" font-size="13.5" fill="#a9b6cf">A built-in grid (or Raycast) opens apps here.</text>
  </g>

  <!-- Row 3 -->
  <g transform="translate(0,348)">
    <g filter="url(#sh)"><rect x="40" y="0" width="400" height="96" rx="14" fill="#0e1730" stroke="#3a2436"/></g>
    <circle cx="78" cy="48" r="18" fill="#221a2c"/>
    <path d="M71 41 l14 14 M85 41 l-14 14" stroke="#e58fa0" stroke-width="3" stroke-linecap="round"/>
    <text x="112" y="42" font-family="'Instrument Sans','Instrument Sans Variable',-apple-system,'SF Pro Text','Helvetica Neue',Arial,sans-serif" font-size="17" font-weight="700" fill="#e8edf6">Global Dock</text>
    <text x="112" y="66" font-family="'Instrument Sans','Instrument Sans Variable',-apple-system,'SF Pro Text','Helvetica Neue',Arial,sans-serif" font-size="13.5" fill="#a9b6cf">The Dock shows every app, not this desktop's.</text>
    <path d="M458 48 h64 m-14 -10 l14 10 -14 10" stroke="#2a3a5e" stroke-width="3" fill="none" stroke-linecap="round" stroke-linejoin="round"/>
    <g filter="url(#sh)"><rect x="540" y="0" width="400" height="96" rx="14" fill="#0e1730" stroke="#1e3a5e"/></g>
    <circle cx="578" cy="48" r="18" fill="#13223f"/>
    <path d="M571 48 l5 5 9 -11" stroke="#6f9dff" stroke-width="3" fill="none" stroke-linecap="round" stroke-linejoin="round"/>
    <text x="612" y="42" font-family="'Instrument Sans','Instrument Sans Variable',-apple-system,'SF Pro Text','Helvetica Neue',Arial,sans-serif" font-size="17" font-weight="700" fill="#e8edf6">Per-Space dock</text>
    <text x="612" y="66" font-family="'Instrument Sans','Instrument Sans Variable',-apple-system,'SF Pro Text','Helvetica Neue',Arial,sans-serif" font-size="13.5" fill="#a9b6cf">A floating bar of only the apps on this desktop.</text>
  </g>

  <!-- Row 4 -->
  <g transform="translate(0,460)">
    <g filter="url(#sh)"><rect x="40" y="0" width="400" height="96" rx="14" fill="#0e1730" stroke="#3a2436"/></g>
    <circle cx="78" cy="48" r="18" fill="#221a2c"/>
    <path d="M71 41 l14 14 M85 41 l-14 14" stroke="#e58fa0" stroke-width="3" stroke-linecap="round"/>
    <text x="112" y="42" font-family="'Instrument Sans','Instrument Sans Variable',-apple-system,'SF Pro Text','Helvetica Neue',Arial,sans-serif" font-size="17" font-weight="700" fill="#e8edf6">Global Cmd-Tab</text>
    <text x="112" y="66" font-family="'Instrument Sans','Instrument Sans Variable',-apple-system,'SF Pro Text','Helvetica Neue',Arial,sans-serif" font-size="13.5" fill="#a9b6cf">Cmd-Tab cycles every Space's windows at once.</text>
    <path d="M458 48 h64 m-14 -10 l14 10 -14 10" stroke="#2a3a5e" stroke-width="3" fill="none" stroke-linecap="round" stroke-linejoin="round"/>
    <g filter="url(#sh)"><rect x="540" y="0" width="400" height="96" rx="14" fill="#0e1730" stroke="#1e3a5e"/></g>
    <circle cx="578" cy="48" r="18" fill="#13223f"/>
    <path d="M571 48 l5 5 9 -11" stroke="#6f9dff" stroke-width="3" fill="none" stroke-linecap="round" stroke-linejoin="round"/>
    <text x="612" y="42" font-family="'Instrument Sans','Instrument Sans Variable',-apple-system,'SF Pro Text','Helvetica Neue',Arial,sans-serif" font-size="17" font-weight="700" fill="#e8edf6">One-click AltTab install</text>
    <text x="612" y="66" font-family="'Instrument Sans','Instrument Sans Variable',-apple-system,'SF Pro Text','Helvetica Neue',Arial,sans-serif" font-size="13.5" fill="#a9b6cf">A per-desktop switcher; ⌘-Tab is a quick manual step.</text>
  </g>
</svg>
